HIERARCHY
ROOT Hips
{
	OFFSET 0.00000 0.00000 0.00000
	CHANNELS 6 Xposition Yposition Zposition Zrotation Yrotation Xrotation 
	JOINT LHipJoint
	{
		OFFSET 0 0 0
		CHANNELS 3 Zrotation Yrotation Xrotation
		JOINT LeftHip
		{
			OFFSET 1.37959 -1.78713 0.86582
			CHANNELS 3 Zrotation Yrotation Xrotation
			JOINT LeftKnee
			{
				OFFSET 2.54611 -6.99539 0.00000
				CHANNELS 3 Zrotation Yrotation Xrotation
				JOINT LeftAnkle
				{
					OFFSET 2.59951 -7.14211 0.00000
					CHANNELS 3 Zrotation Yrotation Xrotation
					JOINT LeftToe
					{
						OFFSET 0.18493 -0.50810 1.96120
						CHANNELS 3 Zrotation Yrotation Xrotation
						End Site
						{
							OFFSET 0.00000 -0.00000 1.02054
						}
					}
				}
			}
		}
	}
	JOINT RHipJoint
	{
		OFFSET 0 0 0
		CHANNELS 3 Zrotation Yrotation Xrotation
		JOINT RightHip
		{
			OFFSET -1.33564 -1.78713 0.86582
			CHANNELS 3 Zrotation Yrotation Xrotation
			JOINT RightKnee
			{
				OFFSET -2.52705 -6.94302 0.00000
				CHANNELS 3 Zrotation Yrotation Xrotation
				JOINT RightAnkle
				{
					OFFSET -2.55964 -7.03257 0.00000
					CHANNELS 3 Zrotation Yrotation Xrotation
					JOINT RightToe
					{
						OFFSET -0.25804 -0.70896 2.12109
						CHANNELS 3 Zrotation Yrotation Xrotation
						End Site
						{
							OFFSET -0.00000 -0.00000 1.11821
						}
					}
				}
			}
		}
	}
	JOINT lowerback
	{
		OFFSET 0 0 0
		CHANNELS 3 Zrotation Yrotation Xrotation
		JOINT Chest
		{
			OFFSET -0.02031 2.24248 -0.18900
			CHANNELS 3 Zrotation Yrotation Xrotation
			JOINT Chest2
			{
				OFFSET 0.08342 2.24689 -0.03799
				CHANNELS 3 Zrotation Yrotation Xrotation
				JOINT lowerneck
				{
					OFFSET 0 0 0
					CHANNELS 3 Zrotation Yrotation Xrotation
					JOINT Neck
					{
						OFFSET -0.11607 1.55844 0.24628
						CHANNELS 3 Zrotation Yrotation Xrotation
						JOINT Head
						{
							OFFSET 0.06877 1.60174 -0.17013
							CHANNELS 3 Zrotation Yrotation Xrotation
							End Site
							{
								OFFSET 0.03358 1.61266 -0.08543
							}
						}
					}
				}
				JOINT LeftCollar
				{
					OFFSET 0 0 0
					CHANNELS 3 Zrotation Yrotation Xrotation
					JOINT LeftShoulder
					{
						OFFSET 3.47537 0.55866 -0.72348
CHANNELS 3 Zrotation Xrotation Yrotation
						JOINT LeftElbow
						{
OFFSET 0 -5.381540 0.000000
CHANNELS 3 Zrotation Xrotation Yrotation
							JOINT LeftWrist
							{
OFFSET 0 -3.333120 0.000000
CHANNELS 3 Zrotation Xrotation Yrotation
								JOINT lhand
								{
									OFFSET 0 0 0
CHANNELS 3 Zrotation Xrotation Yrotation
									JOINT LFingers
									{
OFFSET 0 -0.710790 0.000000
CHANNELS 3 Zrotation Xrotation Yrotation
										End Site
										{
OFFSET 0 -0.573060 0.000000
										}
									}
								}
								JOINT LThumb
								{
OFFSET 0 0.000000 0.000000
CHANNELS 3 Zrotation Xrotation Yrotation
									End Site
									{
OFFSET 0 -0.581810 0.581810
									}
								}
							}
						}
					}
				}
				JOINT RightCollar
				{
					OFFSET 0 0 0
					CHANNELS 3 Zrotation Yrotation Xrotation
					JOINT RightShoulder
					{
						OFFSET -3.27844 0.90739 -0.35708
CHANNELS 3 Zrotation Xrotation Yrotation
						JOINT RightElbow
						{
OFFSET 0 -5.169540 0.000000
CHANNELS 3 Zrotation Xrotation Yrotation
							JOINT RightWrist
							{
OFFSET 0 -3.382870 0.000000
CHANNELS 3 Zrotation Xrotation Yrotation
								JOINT rhand
								{
									OFFSET 0 0 0
CHANNELS 3 Zrotation Xrotation Yrotation
									JOINT RFingers
									{
OFFSET 0 -0.817970 0.000000
CHANNELS 3 Zrotation Xrotation Yrotation
										End Site
										{
OFFSET 0 -0.659470 0.000000
										}
									}
								}
								JOINT RThumb
								{
OFFSET 0 0.000000 0.000000
CHANNELS 3 Zrotation Xrotation Yrotation
									End Site
									{
OFFSET 0 -0.669530 0.669530
									}
								}
							}
						}
					}
				}
			}
		}
	}
}
MOTION
Frames: 4
Frame Time: 0.008333333333333333
6.501800 18.091100 12.068900 178.479000 -12.021100 -175.600000 0.000000 0.000000 0.000000 -27.199200 0.914600 -8.966900 1.263400 7.124800 20.085600 0.507600 -2.937200 -12.772500 0.061100 1.595000 4.387600 0.000000 0.000000 0.000000 6.037800 8.560800 -6.503400 -0.635400 -5.100100 14.194200 0.019800 -6.154200 -8.224200 -0.279400 3.399600 -9.393400 -6.836700 1.557000 1.860600 -0.501400 1.923500 2.763100 3.297700 0.791100 1.600300 -12.977000 -6.845200 -5.649100 13.194000 -11.309100 17.802000 5.442500 -5.614100 7.864900 -0.000000 0.000000 0.000000 3.553700 -2.098600 -8.368500 16.137600 -25.706800 3.705400 -2.003400 8.164700 -38.610700 0.000000 0.000000 0.000000 -7.125000 0.000000 0.000000 -44.874800 62.846900 21.654500 -0.000000 0.000000 0.000000 -2.320900 -0.202300 19.941700 -21.145300 -31.997600 -6.126800 -14.396700 -27.978200 -16.598400 0.000000 0.000000 0.000000 7.125000 0.000000 -0.000000 8.920700 13.025700 6.764900
6.499712 18.084420 12.078221 178.793097 -11.696417 -175.627497 0.000000 0.000000 0.000000 -26.884414 1.460297 -9.303810 1.289835 7.196203 20.297871 0.513723 -3.208485 -12.822104 0.037713 1.253467 3.446489 0.000000 0.000000 0.000000 6.278726 8.751237 -6.650453 -0.643731 -5.132763 14.287626 -0.000550 -5.796416 -8.285786 -0.142079 2.421074 -6.671202 -6.494960 1.492592 1.987063 -0.412601 1.831796 2.798233 3.196978 0.751138 1.581343 -13.084460 -7.363938 -5.696211 12.597778 -11.451486 15.988005 5.226980 -5.658579 7.284669 0.000000 0.000000 0.000000 3.361145 -1.860603 -7.351458 16.023608 -25.552663 3.656121 -2.320071 8.784407 -38.320932 0.000000 0.000000 0.000000 -7.125000 0.000000 0.000000 -44.784958 62.554968 21.298576 0.000000 0.000000 0.000000 -2.326401 0.090618 21.879347 -24.841090 -36.033459 -8.199371 -13.811192 -32.993790 -17.909686 0.000000 0.000000 0.000000 7.125000 0.000000 0.000000 9.327849 11.756682 7.331996
6.509862 18.081547 12.079646 178.909851 -11.481943 -175.877311 0.000000 0.000000 0.000000 -26.709625 1.757799 -9.286641 1.309070 7.247717 20.451370 0.522451 -3.276030 -12.926710 0.035723 1.219662 3.353379 0.000000 0.000000 0.000000 6.497850 8.858566 -6.308516 -0.628219 -5.071667 14.113117 0.005908 -5.911581 -8.265845 -0.136890 2.383717 -6.567439 -6.690285 1.337437 2.377889 -0.134516 1.590215 2.838260 3.588846 0.628427 1.416921 -14.422151 -7.581784 -4.535184 13.251982 -11.352210 13.159669 5.708230 -5.629063 6.292405 0.000000 0.000000 0.000000 2.910814 -1.368097 -6.885335 16.038215 -25.572440 3.662459 -1.863382 8.907816 -38.248614 0.000000 0.000000 0.000000 -7.125000 0.000000 0.000000 -44.258794 62.623219 21.063671 0.000000 0.000000 0.000000 -2.669088 -0.149911 24.004481 -29.359332 -40.336963 -10.992816 -15.026876 -37.669104 -19.315631 0.000000 0.000000 0.000000 7.125000 0.000000 0.000000 8.571166 10.208303 6.997264
6.521094 18.064456 12.082208 179.001157 -11.393558 -175.687631 0.000000 0.000000 0.000000 -26.646133 1.894123 -9.597258 1.296207 7.213219 20.348702 0.509527 -2.988259 -12.791775 0.020019 0.405028 1.114204 0.000000 0.000000 0.000000 6.593219 9.036148 -6.610616 -0.637426 -5.107901 14.216656 0.011466 -5.946494 -8.156648 -0.157842 2.560028 -7.056187 -6.321503 1.216258 2.531774 -0.380948 1.422067 2.487166 3.123801 0.579144 0.998867 -13.786025 -7.889572 -4.901600 12.396644 -11.503377 12.518164 5.292778 -5.679341 6.093474 0.000000 0.000000 0.000000 3.592051 -0.499975 -7.379917 15.983522 -25.498162 3.638937 -2.207935 8.309022 -38.291932 0.000000 0.000000 0.000000 -7.125000 0.000000 0.000000 -44.640615 62.563959 21.223241 0.000000 0.000000 0.000000 -2.285424 -0.520219 25.469671 -34.929135 -44.751650 -14.766691 -13.624634 -42.641433 -20.546807 0.000000 0.000000 0.000000 7.125000 0.000000 0.000000 9.512475 9.120808 7.997323
